<!--?xml version="1.0" encoding="utf-8"?-->
<!-- Generator: Adobe Illustrator 18.1.1, SVG Export Plug-In . SVG Version: 6.00 Build 0)  -->

<svg version="1.1" id="_x31_0" xmlns="http://www.w3.org/2000/svg" xmlns:xlink="http://www.w3.org/1999/xlink" x="0px" y="0px" viewBox="0 0 512 512" style="width: 256px; height: 256px; opacity: 1;" xml:space="preserve">
<style type="text/css">
	.st0{fill:#374149;}
</style>
<g>
	<path class="st0" d="M488.738,367.907l-45.875-35.766c-23.254-18.133-56.16-16.758-77.949,3.105
		c-8.871,8.086-16.875,16.032-21.122,21.582c-0.359,0.469-0.793,0.848-1.27,1.164c-0.046,0.031-0.086,0.074-0.136,0.106
		c-16.286,10.129-95.622-61.019-111.25-77.293c-16.809-16.145-92.191-100.286-76.019-112.656c5.55-4.246,13.492-12.25,21.582-21.122
		c19.863-21.789,21.234-54.695,3.106-77.945l-35.766-45.875c-2.809-3.602-6.062-6.691-9.504-9.504
		c-0.164-0.137-0.324-0.274-0.492-0.406c-1.649-1.32-3.336-2.55-5.102-3.679c-0.214-0.141-0.438-0.262-0.652-0.399
		c-7.555-4.706-16.02-7.667-24.852-8.706c-0.058-0.008-0.117-0.016-0.172-0.024C96.137-0.327,88.825-0.034,81.61,1.79
		C62.797,6.544-1.414,50.283,0.024,82.364c0.414,9.242,6.496,26.618,15.926,48.442c21.262,49.191,48.043,95.343,79.418,137.859
		c41.649,56.578,91.52,106.43,148.114,148.058c42.465,31.309,88.543,58.043,137.66,79.27c21.824,9.43,39.199,15.516,48.442,15.926
		c32.082,1.438,75.816-62.77,80.574-81.586C516.023,407.118,507.621,382.626,488.738,367.907z" style="fill: rgb(255, 255, 255);"></path>
</g>
</svg>
